<svg xmlns="http://www.w3.org/2000/svg" width="15.75" height="18" viewBox="0 0 15.75 18">
    <path id="prefix__ballot-check" d="M3.938 15.188h1.125a1.126 1.126 0 0 0 1.125-1.125v-1.125a1.126 1.126 0 0 0-1.125-1.125H3.938a1.126 1.126 0 0 0-1.125 1.125v1.125a1.126 1.126 0 0 0 1.125 1.125zm0-2.25h1.125v1.125H3.938zm0-6.75h1.125a1.126 1.126 0 0 0 1.125-1.125V3.938a1.126 1.126 0 0 0-1.125-1.125H3.938a1.126 1.126 0 0 0-1.125 1.125v1.125a1.126 1.126 0 0 0 1.125 1.125zm0-2.25h1.125v1.125H3.938zM14.625 0h-13.5A1.126 1.126 0 0 0 0 1.125v15.75A1.126 1.126 0 0 0 1.125 18h13.5a1.126 1.126 0 0 0 1.125-1.125V1.125A1.126 1.126 0 0 0 14.625 0zm0 16.875h-13.5V1.125h13.5zM7.594 5.063h4.5a.282.282 0 0 0 .281-.281v-.563a.282.282 0 0 0-.281-.281h-4.5a.282.282 0 0 0-.281.281v.563a.282.282 0 0 0 .281.281zm0 4.5h4.5a.282.282 0 0 0 .281-.281v-.563a.282.282 0 0 0-.281-.281h-4.5a.282.282 0 0 0-.281.281v.563a.282.282 0 0 0 .281.281zm0 4.5h4.5a.282.282 0 0 0 .281-.281v-.562a.282.282 0 0 0-.281-.281h-4.5a.282.282 0 0 0-.281.281v.563a.282.282 0 0 0 .281.28zM4.17 10.069a.189.189 0 0 0 .267 0l2.257-2.236a.189.189 0 0 0 0-.267l-.443-.446a.189.189 0 0 0-.267 0L4.31 8.779l-.724-.735a.189.189 0 0 0-.267 0l-.446.443a.189.189 0 0 0 0 .267z" style="fill:#fff"/>
</svg>
