<svg xmlns="http://www.w3.org/2000/svg" width="16.01" height="16.01" viewBox="0 0 16.01 16.01">
    <path id="prefix__bullseye-pointer" d="M7.8 15.511L.672 17.535A.57.57 0 0 0 .581 18.6l1.784.857L.41 21.409a1.033 1.033 0 0 0 0 1.461l.73.73a1.033 1.033 0 0 0 1.461 0l1.956-1.956.857 1.784a.57.57 0 0 0 1.062-.091L8.5 16.214a.57.57 0 0 0-.7-.7zM5.815 21.88l-.959-2-2.986 2.99-.73-.73 2.986-2.986-2-.959 5.148-1.463zM10.587 16a2.579 2.579 0 0 0-4.979-.946 11.311 11.311 0 0 1 2.4-.6A1.551 1.551 0 0 1 9.554 16a11.243 11.243 0 0 1-.6 2.4 2.582 2.582 0 0 0 1.633-2.4zm-2.456 5.286a5.288 5.288 0 1 0-5.408-5.408l1.064-.3a4.249 4.249 0 1 1 4.646 4.646l-.3 1.064zM8 8a8 8 0 0 0-8 8c0 .236.015.468.035.7a1.6 1.6 0 0 1 .355-.161l.661-.188c-.006-.116-.018-.231-.018-.349A6.972 6.972 0 1 1 8 22.977c-.118 0-.233-.012-.349-.018l-.188.66a1.589 1.589 0 0 1-.166.354c.232.02.465.036.7.036A8 8 0 1 0 8 8z" transform="translate(0 -8)" style="fill:#fff"/>
</svg>
