<svg xmlns="http://www.w3.org/2000/svg" width="42" height="42" viewBox="0 0 42 42">
    <defs>
        <style>
            .prefix__cls-3{fill:#325181}
        </style>
    </defs>
    <g id="prefix__Calendar" transform="translate(-2 -2)">
        <path id="prefix__Path_16849" d="M40.8 9h-4.2v2.1a2.1 2.1 0 1 1-4.2 0V9h-7v2.1a2.1 2.1 0 1 1-4.2 0V9h-7v2.1a2.1 2.1 0 0 1-4.2 0V9H5.8A2.8 2.8 0 0 0 3 11.8v5.6h40.6v-5.6A2.8 2.8 0 0 0 40.8 9z" data-name="Path 16849" transform="translate(-.3 -2.1)" style="fill:none"/>
        <ellipse id="prefix__Ellipse_563" cx="8.5" cy="8" data-name="Ellipse 563" rx="8.5" ry="8" transform="translate(26 27)" style="fill:#e98303"/>
        <g id="prefix__Group_1971" data-name="Group 1971" transform="translate(2 2)">
            <path id="prefix__Path_16850" d="M40.5 6.2H37V4.8a2.8 2.8 0 1 0-5.6 0v1.4h-5.6V4.8a2.8 2.8 0 1 0-5.6 0v1.4h-5.6V4.8a2.8 2.8 0 0 0-5.6 0v1.4H5.5A3.5 3.5 0 0 0 2 9.7v28a3.5 3.5 0 0 0 3.5 3.5h19.6a.7.7 0 1 0 0-1.4H5.5a2.106 2.106 0 0 1-2.1-2.1V16h39.2v11.9a.7.7 0 1 0 1.4 0V9.7a3.5 3.5 0 0 0-3.5-3.5zm-7.7-1.4a1.4 1.4 0 1 1 2.8 0V9a1.4 1.4 0 1 1-2.8 0zm-11.2 0a1.4 1.4 0 1 1 2.8 0V9a1.4 1.4 0 1 1-2.8 0zm-11.2 0a1.4 1.4 0 1 1 2.8 0V9a1.4 1.4 0 1 1-2.8 0zm32.2 9.8H3.4V9.7a2.106 2.106 0 0 1 2.1-2.1H9V9a2.8 2.8 0 0 0 5.6 0V7.6h5.6V9a2.8 2.8 0 1 0 5.6 0V7.6h5.6V9A2.8 2.8 0 1 0 37 9V7.6h3.5a2.106 2.106 0 0 1 2.1 2.1z" class="prefix__cls-3" data-name="Path 16850" transform="translate(-2 -2)"/>
            <path id="prefix__Path_16851" d="M27.6 28.4a1.4 1.4 0 0 0-1.4-1.4h-2.8a1.4 1.4 0 0 0-1.4 1.4v2.1a1.4 1.4 0 0 0 1.4 1.4h2.8a1.4 1.4 0 0 0 1.4-1.4zm-4.2 2.1v-2.1h2.8v2.1z" class="prefix__cls-3" data-name="Path 16851" transform="translate(-8 -9.5)"/>
            <path id="prefix__Path_16852" d="M15.6 28.4a1.4 1.4 0 0 0-1.4-1.4h-2.8a1.4 1.4 0 0 0-1.4 1.4v2.1a1.4 1.4 0 0 0 1.4 1.4h2.8a1.4 1.4 0 0 0 1.4-1.4zm-4.2 2.1v-2.1h2.8v2.1z" class="prefix__cls-3" data-name="Path 16852" transform="translate(-4.4 -9.5)"/>
            <path id="prefix__Path_16853" d="M50.2 31.9a1.4 1.4 0 0 0 1.4-1.4v-2.1a1.4 1.4 0 0 0-1.4-1.4h-2.8a1.4 1.4 0 0 0-1.4 1.4v2.1a1.4 1.4 0 0 0 1.4 1.4zm-2.8-3.5h2.8v2.1h-2.8z" class="prefix__cls-3" data-name="Path 16853" transform="translate(-15.2 -9.5)"/>
            <path id="prefix__Path_16854" d="M27.6 37.4a1.4 1.4 0 0 0-1.4-1.4h-2.8a1.4 1.4 0 0 0-1.4 1.4v2.1a1.4 1.4 0 0 0 1.4 1.4h2.8a1.4 1.4 0 0 0 1.4-1.4zm-4.2 2.1v-2.1h2.8v2.1z" class="prefix__cls-3" data-name="Path 16854" transform="translate(-8 -12.2)"/>
            <path id="prefix__Path_16855" d="M15.6 37.4a1.4 1.4 0 0 0-1.4-1.4h-2.8a1.4 1.4 0 0 0-1.4 1.4v2.1a1.4 1.4 0 0 0 1.4 1.4h2.8a1.4 1.4 0 0 0 1.4-1.4zm-4.2 2.1v-2.1h2.8v2.1z" class="prefix__cls-3" data-name="Path 16855" transform="translate(-4.4 -12.2)"/>
            <path id="prefix__Path_16856" d="M26.2 45h-2.8a1.4 1.4 0 0 0-1.4 1.4v2.1a1.4 1.4 0 0 0 1.4 1.4h2.8a1.4 1.4 0 0 0 1.4-1.4v-2.1a1.4 1.4 0 0 0-1.4-1.4zm-2.8 3.5v-2.1h2.8v2.1z" class="prefix__cls-3" data-name="Path 16856" transform="translate(-8 -14.9)"/>
            <path id="prefix__Path_16857" d="M35.4 31.9h2.8a1.4 1.4 0 0 0 1.4-1.4v-2.1a1.4 1.4 0 0 0-1.4-1.4h-2.8a1.4 1.4 0 0 0-1.4 1.4v2.1a1.4 1.4 0 0 0 1.4 1.4zm0-3.5h2.8v2.1h-2.8z" class="prefix__cls-3" data-name="Path 16857" transform="translate(-11.6 -9.5)"/>
            <path id="prefix__Path_16858" d="M34 39.5a1.4 1.4 0 0 0 1.4 1.4.7.7 0 1 0 0-1.4v-2.1h2.8a.7.7 0 0 0 0-1.4h-2.8a1.4 1.4 0 0 0-1.4 1.4z" class="prefix__cls-3" data-name="Path 16858" transform="translate(-11.6 -12.2)"/>
            <path id="prefix__Path_16859" d="M14.2 45h-2.8a1.4 1.4 0 0 0-1.4 1.4v2.1a1.4 1.4 0 0 0 1.4 1.4h2.8a1.4 1.4 0 0 0 1.4-1.4v-2.1a1.4 1.4 0 0 0-1.4-1.4zm-2.8 3.5v-2.1h2.8v2.1z" class="prefix__cls-3" data-name="Path 16859" transform="translate(-4.4 -14.9)"/>
            <path id="prefix__Path_16860" d="M45.1 36a9.1 9.1 0 1 0 9.1 9.1 9.1 9.1 0 0 0-9.1-9.1zm0 16.8a7.7 7.7 0 1 1 7.7-7.7 7.7 7.7 0 0 1-7.7 7.7z" class="prefix__cls-3" data-name="Path 16860" transform="translate(-12.2 -12.2)"/>
            <path id="prefix__Path_16861" d="M50.872 44.72l-5.445 5.445-2.475-2.475a.7.7 0 1 0-.99.99l2.969 2.97a.7.7 0 0 0 .99 0l5.939-5.939a.7.7 0 1 0-.99-.99z" class="prefix__cls-3" data-name="Path 16861" transform="translate(-13.927 -14.754)"/>
        </g>
    </g>
</svg>
