<svg xmlns="http://www.w3.org/2000/svg" width="10.103" height="6.797" viewBox="0 0 10.103 6.797">
    <defs>
        <style>
            .cls-1{fill:#fff}
        </style>
    </defs>
    <g id="confirm-7" transform="translate(0 -80.506)">
        <g id="Group_489" data-name="Group 489" transform="translate(0 80.506)">
            <path id="Path_296" d="M9.942 81l-.331-.331a.554.554 0 0 0-.781 0l-4.65 4.65-2.906-2.907a.554.554 0 0 0-.781 0l-.331.331a.554.554 0 0 0 0 .782l3.28 3.28a.124.124 0 0 0 .014.017l.331.326a.545.545 0 0 0 .392.155.544.544 0 0 0 .391-.155l.331-.328a.084.084 0 0 0 .013-.014l5.027-5.026a.552.552 0 0 0 .001-.78z" class="cls-1" data-name="Path 296" transform="translate(0 -80.506)"/>
        </g>
    </g>
</svg>
