<svg xmlns="http://www.w3.org/2000/svg" width="14.396" height="9.685" viewBox="0 0 14.396 9.685">
    <g id="prefix__confirm-7">
        <g id="prefix__Group_489" data-name="Group 489">
            <path id="prefix__Path_296" d="M14.166 81.207l-.472-.472a.789.789 0 0 0-1.113 0l-6.626 6.627-4.14-4.14a.789.789 0 0 0-1.113 0l-.472.471a.79.79 0 0 0 0 1.114l4.67 4.674a.177.177 0 0 0 .02.024l.472.464a.777.777 0 0 0 .558.222.775.775 0 0 0 .557-.222l.472-.468A.119.119 0 0 0 7 89.482l7.163-7.162a.786.786 0 0 0 .003-1.113z" data-name="Path 296" transform="translate(0 -80.506)" style="fill:#e98303"/>
        </g>
    </g>
</svg>
