<svg xmlns="http://www.w3.org/2000/svg" width="7.485" height="7.486" viewBox="0 0 7.485 7.486">
    <g id="prefix__phone-4" transform="translate(.05 .051)">
        <g id="prefix__Group_579" data-name="Group 579">
            <path id="prefix__Path_356" d="M6.8 4.863a4.216 4.216 0 0 1-1.325-.211.568.568 0 0 0-.576.122l-.838.633a4.683 4.683 0 0 1-2.083-2.084l.616-.823a.589.589 0 0 0 .144-.595A4.227 4.227 0 0 1 2.527.583.584.584 0 0 0 1.944 0H.583A.584.584 0 0 0 0 .583a6.811 6.811 0 0 0 6.8 6.8.584.584 0 0 0 .586-.583V5.446a.584.584 0 0 0-.586-.583zM7 6.8a.2.2 0 0 1-.2.2A6.421 6.421 0 0 1 .389.583.2.2 0 0 1 .583.389h1.361a.2.2 0 0 1 .194.194 4.615 4.615 0 0 0 .23 1.446.215.215 0 0 1-.067.222l-.707.937a.194.194 0 0 0-.018.205A5.1 5.1 0 0 0 3.993 5.81a.193.193 0 0 0 .207-.018l.957-.725a.2.2 0 0 1 .2-.046 4.612 4.612 0 0 0 1.443.231.2.2 0 0 1 .2.194V6.8z" data-name="Path 356" style="fill:#325181;stroke:#325181;stroke-width:.1px"/>
        </g>
    </g>
</svg>
