<svg xmlns="http://www.w3.org/2000/svg" width="34.665" height="34.665" viewBox="0 0 34.665 34.665">
    <path id="prefix__user-circle" d="M16.832 14.516a6.516 6.516 0 1 0 6.516 6.516 6.517 6.517 0 0 0-6.516-6.516zm0 9.774a3.258 3.258 0 1 1 3.258-3.258 3.259 3.259 0 0 1-3.258 3.257zm0-16.29a16.832 16.832 0 1 0 16.833 16.832A16.83 16.83 0 0 0 16.832 8zm0 30.407A13.5 13.5 0 0 1 8 35.122a5.847 5.847 0 0 1 4.724-2.681 13.809 13.809 0 0 0 4.106.652 13.594 13.594 0 0 0 4.106-.652 5.864 5.864 0 0 1 4.724 2.681 13.5 13.5 0 0 1-8.828 3.285zM27.875 32.7a9 9 0 0 0-7.133-3.523c-.692 0-1.765.652-3.909.652s-3.217-.652-3.909-.652A9.023 9.023 0 0 0 5.79 32.7a13.568 13.568 0 1 1 24.617-7.866 13.477 13.477 0 0 1-2.532 7.866z" transform="translate(.5 -7.5)" style="fill:#e98303;stroke:#fff"/>
</svg>
