<svg xmlns="http://www.w3.org/2000/svg" width="28.671" height="27.861" viewBox="0 0 28.671 27.861">
    <g id="prefix__megaphone-2" transform="rotate(-32 20.128 5.772)">
        <g id="prefix__Group_2254" data-name="Group 2254">
            <path id="prefix__Path_16927" d="M19.127 4.583V1.078a1.078 1.078 0 0 0-1.606-.939A25.072 25.072 0 0 1 7.062 3.28l-3.377.017a1.647 1.647 0 0 0-1.633 1.45h-.687A1.366 1.366 0 0 0 0 6.112v3a1.366 1.366 0 0 0 1.365 1.365h.687a1.648 1.648 0 0 0 .97 1.311l2.446 6.751a1.071 1.071 0 0 0 1 .7h2.457a1.068 1.068 0 0 0 1-1.432l-2.1-5.8a25.036 25.036 0 0 1 9.694 3.071 1.071 1.071 0 0 0 1.074-.011 1.066 1.066 0 0 0 .531-.928v-3.502a3.052 3.052 0 0 0 0-6.054zM2.04 9.423h-.675a.313.313 0 0 1-.312-.312v-3a.313.313 0 0 1 .312-.311h.675zm1.4 1.4a.592.592 0 0 1-.351-.54V4.941a.592.592 0 0 1 .592-.592H6.55v6.524h-2.9a.552.552 0 0 1-.207-.052zm5.5 7.345a.012.012 0 0 1 0 .014.012.012 0 0 1-.012.006H6.471a.015.015 0 0 1-.014-.009l-2.265-6.253h2.485zm9.135-4.024a.019.019 0 0 1-.011.02.024.024 0 0 1-.028 0A26.091 26.091 0 0 0 7.6 10.93V4.291a26.1 26.1 0 0 0 10.435-3.233.025.025 0 0 1 .028 0 .019.019 0 0 1 .011.02zm1.053-4.571V5.649a2 2 0 0 1 0 3.923z" data-name="Path 16927" style="fill:#fff"/>
        </g>
    </g>
</svg>
