<svg xmlns="http://www.w3.org/2000/svg" width="17.697" height="22.367" viewBox="0 0 17.697 22.367">
    <path id="prefix__notification-2" d="M70.766 17.8a3.475 3.475 0 0 1-1.056-1.438 16.64 16.64 0 0 1-1.1-6.575v-.025a6.346 6.346 0 0 0-3.735-5.756V2.492A2.492 2.492 0 0 0 62.386 0h-.206a2.492 2.492 0 0 0-2.487 2.492v1.514a6.346 6.346 0 0 0-3.736 5.781 16.64 16.64 0 0 1-1.1 6.575A3.475 3.475 0 0 1 53.8 17.8a.637.637 0 0 0-.35.725.667.667 0 0 0 .657.512h4.8a3.374 3.374 0 0 0 6.747 0h4.8a.667.667 0 0 0 .657-.512.637.637 0 0 0-.345-.725zM61 2.492a1.179 1.179 0 0 1 1.18-1.179h.206a1.179 1.179 0 0 1 1.177 1.179V3.58a6.346 6.346 0 0 0-2.56 0V2.492zm1.28 18.562a2.068 2.068 0 0 1-2.063-2.018h4.126a2.068 2.068 0 0 1-2.06 2.018zm2.638-3.33H55.6a6.869 6.869 0 0 0 .343-.6 16.591 16.591 0 0 0 1.324-7.334 5.016 5.016 0 1 1 10.031 0v.024a16.557 16.557 0 0 0 1.324 7.308 6.868 6.868 0 0 0 .343.6z" transform="translate(-53.434)" style="fill:#fff"/>
</svg>
