<svg xmlns="http://www.w3.org/2000/svg" width="21.675" height="16.857" viewBox="0 0 21.675 16.857">
    <path id="prefix__address-card"
          d="M19.266 32H2.408A2.411 2.411 0 0 0 0 34.408V46.45a2.41 2.41 0 0 0 2.408 2.408h16.858a2.411 2.411 0 0 0 2.408-2.408V34.408A2.411 2.411 0 0 0 19.266 32zm1.2 14.45a1.208 1.208 0 0 1-1.2 1.2H2.408a1.208 1.208 0 0 1-1.2-1.2V34.408a1.208 1.208 0 0 1 1.2-1.2h16.858a1.208 1.208 0 0 1 1.2 1.2zm-2.709-4.817h-4.21a.3.3 0 0 0-.3.3v.6a.3.3 0 0 0 .3.3h4.214a.3.3 0 0 0 .3-.3v-.6a.3.3 0 0 0-.3-.3zm0-2.408h-4.21a.3.3 0 0 0-.3.3v.6a.3.3 0 0 0 .3.3h4.214a.3.3 0 0 0 .3-.3v-.6a.3.3 0 0 0-.3-.3zm0-2.408h-4.21a.3.3 0 0 0-.3.3v.6a.3.3 0 0 0 .3.3h4.214a.3.3 0 0 0 .3-.3v-.6a.3.3 0 0 0-.3-.3zm-9.93 4.816a3.01 3.01 0 1 0-3.01-3.01 3.01 3.01 0 0 0 3.01 3.01zm0-4.817a1.806 1.806 0 1 1-1.806 1.806 1.807 1.807 0 0 1 1.806-1.805zm1.761 5.419c-.734 0-.918.263-1.761.263s-1.027-.263-1.761-.263a2.4 2.4 0 0 0-2.024 1.031 2.519 2.519 0 0 0-.429 1.411v.869a.3.3 0 0 0 .3.3h.6a.3.3 0 0 0 .3-.3v-.869a1.32 1.32 0 0 1 .226-.738 1.218 1.218 0 0 1 1.027-.5 13.342 13.342 0 0 0 1.761.263 13.559 13.559 0 0 0 1.761-.263 1.227 1.227 0 0 1 1.027.5 1.32 1.32 0 0 1 .226.738v.869a.3.3 0 0 0 .3.3h.6a.3.3 0 0 0 .3-.3v-.869a2.519 2.519 0 0 0-.429-1.411 2.437 2.437 0 0 0-2.032-1.031z" transform="translate(0 -32)" style="fill:#585077"/>
</svg>
