<svg xmlns="http://www.w3.org/2000/svg" width="17.252" height="16.02" viewBox="0 0 17.252 16.02">
    <path id="prefix__indent" d="M1.052 51.878a.6.6 0 0 0-.43-.181.616.616 0 0 0-.622.616v7.394a.616.616 0 0 0 .621.616.6.6 0 0 0 .431-.181l3.7-3.7a.616.616 0 0 0 0-.871zm.181 6.341V53.8l2.209 2.21zM16.944 48H.308a.308.308 0 0 0-.308.308v.616a.308.308 0 0 0 .308.308h16.636a.308.308 0 0 0 .308-.308v-.616a.308.308 0 0 0-.308-.308zm0 14.788H.308A.308.308 0 0 0 0 63.1v.616a.308.308 0 0 0 .308.308h16.636a.308.308 0 0 0 .308-.308V63.1a.308.308 0 0 0-.308-.312zm0-4.929H7.7a.308.308 0 0 0-.308.308v.616a.308.308 0 0 0 .308.308h9.242a.308.308 0 0 0 .308-.308v-.616a.308.308 0 0 0-.306-.308zm0-4.929H7.7a.308.308 0 0 0-.308.308v.616a.308.308 0 0 0 .308.308h9.242a.308.308 0 0 0 .308-.308v-.616a.308.308 0 0 0-.306-.309z" transform="translate(0 -48)" style="fill:#585077"/>
</svg>
