<svg xmlns="http://www.w3.org/2000/svg" width="28" height="22.4" viewBox="0 0 28 22.4">
    <path id="prefix__chart-network" d="M22.47 8.873l-.84-1.12-2.1 1.575.84 1.12zM25.2 8.4a2.782 2.782 0 0 0 1.566-.477 2.831 2.831 0 0 0 .757-.757 2.811 2.811 0 0 0 0-3.133 2.749 2.749 0 0 0-.757-.757 2.811 2.811 0 0 0-3.133 0 2.831 2.831 0 0 0-.757.757A2.8 2.8 0 0 0 25.2 8.4zm0-4.2a1.4 1.4 0 1 1-1.4 1.4 1.4 1.4 0 0 1 1.4-1.4zM4.366 10.977a2.811 2.811 0 0 0-3.132 0 2.831 2.831 0 0 0-.757.757A2.8 2.8 0 1 0 5.6 13.3a2.782 2.782 0 0 0-.477-1.566 2.831 2.831 0 0 0-.757-.757zM2.8 14.7a1.4 1.4 0 1 1 1.4-1.4 1.4 1.4 0 0 1-1.4 1.4zm3.85-.7h2.1v-1.4h-2.1zm20.532 3.618a2.828 2.828 0 0 0-.416-.341 2.811 2.811 0 0 0-3.133 0 2.6 2.6 0 0 0-.4.328l-4.016-2.411A4.9 4.9 0 0 0 14.7 8.4a5 5 0 0 0-1.409.227l-1.719-3.679a2.779 2.779 0 0 0 .551-3.714 2.831 2.831 0 0 0-.757-.757 2.811 2.811 0 0 0-3.133 0 2.831 2.831 0 0 0-.757.757A2.8 2.8 0 0 0 9.8 5.6a2.82 2.82 0 0 0 .512-.052L12.018 9.2a4.891 4.891 0 1 0 6.462 7.179l4.042 2.424a2.8 2.8 0 0 0 4.248 3.115A2.78 2.78 0 0 0 28 19.6a2.782 2.782 0 0 0-.477-1.566 3.137 3.137 0 0 0-.341-.416zM9.8 4.2a1.4 1.4 0 1 1 1.4-1.4 1.4 1.4 0 0 1-1.4 1.4zm4.9 12.6a3.5 3.5 0 1 1 3.5-3.5 3.5 3.5 0 0 1-3.5 3.5zM25.2 21a1.4 1.4 0 1 1 1.4-1.4 1.4 1.4 0 0 1-1.4 1.4z" style="fill:#fff"/>
</svg>
