<svg xmlns="http://www.w3.org/2000/svg" width="19.033" height="14.994" viewBox="0 0 19.033 14.994">
    <path id="prefix__tasks" d="M4.444 50.674a.3.3 0 0 0-.422 0l-2.639 2.64-1.45-1.45a.3.3 0 0 0-.42 0l-.422.422A.3.3 0 0 0-1 52.5a.3.3 0 0 0 .087.21l2.082 2.082a.3.3 0 0 0 .42 0l3.271-3.271a.3.3 0 0 0 0-.421zm-3.064 6.58a1.19 1.19 0 1 0 0 2.379 1.19 1.19 0 1 0 0-2.379zm3.064-12.528a.3.3 0 0 0-.422 0l-2.639 2.64-1.45-1.45a.3.3 0 0 0-.42 0l-.422.422a.3.3 0 0 0-.087.21.3.3 0 0 0 .087.21l2.082 2.082a.3.3 0 0 0 .42 0l3.271-3.271a.3.3 0 0 0 0-.421zm13.3 13.123H6.439a.3.3 0 0 0-.3.3v.595a.3.3 0 0 0 .3.3h11.3a.3.3 0 0 0 .3-.3v-.595a.3.3 0 0 0-.299-.3zm0-11.9H6.439a.3.3 0 0 0-.3.3v.595a.3.3 0 0 0 .3.3h11.3a.3.3 0 0 0 .3-.3v-.595a.3.3 0 0 0-.299-.296zm0 5.948H6.439a.3.3 0 0 0-.3.3v.595a.3.3 0 0 0 .3.3h11.3a.3.3 0 0 0 .3-.3V52.2a.3.3 0 0 0-.299-.3z" transform="translate(.996 -44.639)" style="fill:#585077"/>
</svg>
