<svg xmlns="http://www.w3.org/2000/svg" width="20.509" height="14.355" viewBox="0 0 20.509 14.355">
    <path id="prefix__money-bill-wave" d="M10.255 35.589a3.362 3.362 0 0 0-3.076 3.589 3.363 3.363 0 0 0 3.076 3.589 3.363 3.363 0 0 0 3.076-3.589 3.362 3.362 0 0 0-3.076-3.589zm0 6.153A2.353 2.353 0 0 1 8.2 39.178a2.353 2.353 0 0 1 2.051-2.564 2.353 2.353 0 0 1 2.051 2.564 2.353 2.353 0 0 1-2.047 2.564zm9.651-9.022a9.49 9.49 0 0 0-3.73-.72c-3.947 0-7.894 2-11.841 2a13.7 13.7 0 0 1-3.3-.492A1.02 1.02 0 0 0 0 34.526v10.166a1.019 1.019 0 0 0 .6.944 9.484 9.484 0 0 0 3.73.72c3.947 0 7.894-2 11.841-2a13.693 13.693 0 0 1 3.3.492 1.02 1.02 0 0 0 1.033-1.019V33.664a1.02 1.02 0 0 0-.599-.944zm-18.85 1.82a10.283 10.283 0 0 0 2.008.413 2.05 2.05 0 0 1-2.015 1.937zm-.03 10.152v-1.363a2.05 2.05 0 0 1 2.031 1.9 7.881 7.881 0 0 1-2.035-.541zm18.428-.876a10.27 10.27 0 0 0-2-.412 2.049 2.049 0 0 1 2.009-1.875zm.01-3.318a3.074 3.074 0 0 0-3.031 2.839A24.041 24.041 0 0 0 10 44.359a21.477 21.477 0 0 1-5.91.957A3.082 3.082 0 0 0 1.033 42.3l.013-4.38a3.076 3.076 0 0 0 3.037-2.9A24.065 24.065 0 0 0 10.5 34a21.5 21.5 0 0 1 5.9-.958 3.085 3.085 0 0 0 3.068 3.079l-.013 4.38zm.016-5.409a2.053 2.053 0 0 1-2.037-1.967 7.88 7.88 0 0 1 2.042.542z" transform="translate(0 -32)" style="fill:#585077"/>
</svg>
