<svg xmlns="http://www.w3.org/2000/svg" width="20.243" height="17.711" viewBox="0 0 20.243 17.711">
    <path id="prefix__comment-exclamation" d="M10.056 42.436a.949.949 0 1 0 .949.949.946.946 0 0 0-.949-.949zm-.336-.949h.672a.319.319 0 0 0 .316-.3l.277-4.428a.317.317 0 0 0-.316-.336H9.444a.317.317 0 0 0-.316.336l.272 4.432a.319.319 0 0 0 .32.297zM10.056 32c-5.59 0-10.12 3.68-10.12 8.223a7.267 7.267 0 0 0 2.091 4.993 10.032 10.032 0 0 1-1.834 2.893.949.949 0 0 0 .692 1.6 9.592 9.592 0 0 0 5.5-1.83 12.209 12.209 0 0 0 3.672.565c5.59 0 10.12-3.68 10.12-8.223S15.646 32 10.056 32zm0 15.18a10.9 10.9 0 0 1-3.289-.506l-.6-.19-.514.364A8.53 8.53 0 0 1 1.6 48.414a10.665 10.665 0 0 0 1.613-2.751l.281-.739-.542-.577A5.975 5.975 0 0 1 1.2 40.223c0-3.835 3.973-6.958 8.855-6.958s8.855 3.123 8.855 6.958-3.972 6.957-8.854 6.957z" transform="translate(.066 -32)" style="fill:#585077"/>
</svg>
