<svg xmlns="http://www.w3.org/2000/svg" width="15.014" height="19.111" viewBox="0 0 15.014 19.111">
    <defs>
        <style>
            .prefix__cls-1{fill:#fff}
        </style>
    </defs>
    <g id="prefix__list" transform="translate(-47.037)">
        <g id="prefix__Group_688" data-name="Group 688" transform="translate(47.037)">
            <g id="prefix__Group_687" data-name="Group 687">
                <path id="prefix__Path_443" d="M60.141 2.5h-1.729v-.769c0-.25-.273-.364-.523-.364h-1.343A2.035 2.035 0 0 0 54.522 0 2.07 2.07 0 0 0 52.5 1.367h-1.323c-.25 0-.5.114-.5.364V2.5h-1.729a1.934 1.934 0 0 0-1.911 1.843v13.039a1.83 1.83 0 0 0 1.911 1.729h11.193a1.83 1.83 0 0 0 1.911-1.729V4.347A1.934 1.934 0 0 0 60.141 2.5zm-8.554-.227h1.251a.5.5 0 0 0 .432-.409A1.319 1.319 0 0 1 54.522.843a1.3 1.3 0 0 1 1.228 1.024.5.5 0 0 0 .455.409h1.3V4.1h-5.918zm9.555 15.105a.923.923 0 0 1-1 .819H48.948a.923.923 0 0 1-1-.819V4.347a1.024 1.024 0 0 1 1-.933h1.729v1.16a.478.478 0 0 0 .5.432h6.711a.5.5 0 0 0 .523-.432v-1.16h1.729a1.024 1.024 0 0 1 1 .933v13.035z" class="prefix__cls-1" data-name="Path 443" transform="translate(-47.037)"/>
                <path id="prefix__Path_444" d="M102.857 230.453a.455.455 0 0 0-.637-.023l-1.456 1.388-.614-.637a.455.455 0 0 0-.637-.023.478.478 0 0 0 0 .66l.933.955a.409.409 0 0 0 .318.137.455.455 0 0 0 .318-.137l1.774-1.683a.432.432 0 0 0 .026-.611z" class="prefix__cls-1" data-name="Path 444" transform="translate(-97.102 -220.283)"/>
                <path id="prefix__Path_445" d="M204.235 256.034H199a.455.455 0 1 0 0 .91h5.232a.455.455 0 0 0 0-.91z" class="prefix__cls-1" data-name="Path 445" transform="translate(-191.951 -244.885)"/>
                <path id="prefix__Path_446" d="M102.857 146.861a.455.455 0 0 0-.637-.023l-1.456 1.388-.614-.637a.455.455 0 0 0-.637-.023.478.478 0 0 0 0 .66l.933.955a.409.409 0 0 0 .318.137.455.455 0 0 0 .318-.137l1.774-1.683a.432.432 0 0 0 .026-.611z" class="prefix__cls-1" data-name="Path 446" transform="translate(-97.102 -140.331)"/>
                <path id="prefix__Path_447" d="M204.235 172.442H199a.455.455 0 0 0 0 .91h5.232a.455.455 0 0 0 0-.91z" class="prefix__cls-1" data-name="Path 447" transform="translate(-191.951 -164.933)"/>
                <path id="prefix__Path_448" d="M102.857 314.045a.455.455 0 0 0-.637-.023l-1.456 1.388-.614-.637a.455.455 0 0 0-.637-.023.478.478 0 0 0 0 .66l.933.955a.409.409 0 0 0 .318.137.455.455 0 0 0 .318-.137l1.774-1.683a.432.432 0 0 0 .026-.611z" class="prefix__cls-1" data-name="Path 448" transform="translate(-97.102 -300.234)"/>
                <path id="prefix__Path_449" d="M204.235 339.626H199a.455.455 0 0 0 0 .91h5.232a.455.455 0 0 0 0-.91z" class="prefix__cls-1" data-name="Path 449" transform="translate(-191.951 -324.838)"/>
            </g>
        </g>
    </g>
</svg>
